<svg width="55" height="56" viewBox="0 0 55 56" fill="none" xmlns="http://www.w3.org/2000/svg">
<path d="M27.5 1.75C27.5 1.19772 27.9477 0.75 28.5 0.75C29.0523 0.75 29.5 1.19772 29.5 1.75C29.5 2.30228 29.0523 2.75 28.5 2.75C27.9477 2.75 27.5 2.30228 27.5 1.75Z" fill="white"/>
<path d="M37.5 4.25C37.5 3.69772 37.9477 3.25 38.5 3.25C39.0523 3.25 39.5 3.69772 39.5 4.25C39.5 4.80228 39.0523 5.25 38.5 5.25C37.9477 5.25 37.5 4.80228 37.5 4.25Z" fill="white"/>
<path d="M42.5 6.75C42.5 6.19772 42.9477 5.75 43.5 5.75C44.0523 5.75 44.5 6.19772 44.5 6.75C44.5 7.30228 44.0523 7.75 43.5 7.75C42.9477 7.75 42.5 7.30228 42.5 6.75Z" fill="white"/>
<path d="M45 9.25C45 8.69772 45.4477 8.25 46 8.25C46.5523 8.25 47 8.69772 47 9.25C47 9.80228 46.5523 10.25 46 10.25C45.4477 10.25 45 9.80228 45 9.25Z" fill="white"/>
<path d="M47.5 11.75C47.5 11.1977 47.9477 10.75 48.5 10.75C49.0523 10.75 49.5 11.1977 49.5 11.75C49.5 12.3023 49.0523 12.75 48.5 12.75C47.9477 12.75 47.5 12.3023 47.5 11.75Z" fill="white"/>
<path d="M50 14.25C50 13.6977 50.4477 13.25 51 13.25C51.5523 13.25 52 13.6977 52 14.25C52 14.8023 51.5523 15.25 51 15.25C50.4477 15.25 50 14.8023 50 14.25Z" fill="white"/>
<path d="M50 16.75C50 16.1977 50.4477 15.75 51 15.75C51.5523 15.75 52 16.1977 52 16.75C52 17.3023 51.5523 17.75 51 17.75C50.4477 17.75 50 17.3023 50 16.75Z" fill="white"/>
<path d="M52.5 19.25C52.5 18.6977 52.9477 18.25 53.5 18.25C54.0523 18.25 54.5 18.6977 54.5 19.25C54.5 19.8023 54.0523 20.25 53.5 20.25C52.9477 20.25 52.5 19.8023 52.5 19.25Z" fill="white"/>
<path d="M52.5 21.75C52.5 21.1977 52.9477 20.75 53.5 20.75C54.0523 20.75 54.5 21.1977 54.5 21.75C54.5 22.3023 54.0523 22.75 53.5 22.75C52.9477 22.75 52.5 22.3023 52.5 21.75Z" fill="white"/>
<path d="M52.5 24.25C52.5 23.6977 52.9477 23.25 53.5 23.25C54.0523 23.25 54.5 23.6977 54.5 24.25C54.5 24.8023 54.0523 25.25 53.5 25.25C52.9477 25.25 52.5 24.8023 52.5 24.25Z" fill="white"/>
<path d="M52.5 26.75C52.5 26.1977 52.9477 25.75 53.5 25.75C54.0523 25.75 54.5 26.1977 54.5 26.75C54.5 27.3023 54.0523 27.75 53.5 27.75C52.9477 27.75 52.5 27.3023 52.5 26.75Z" fill="white"/>
<path d="M30 1.75C30 1.19772 30.4477 0.75 31 0.75C31.5523 0.75 32 1.19772 32 1.75C32 2.30228 31.5523 2.75 31 2.75C30.4477 2.75 30 2.30228 30 1.75Z" fill="white"/>
<path d="M32.5 1.75C32.5 1.19772 32.9477 0.75 33.5 0.75C34.0523 0.75 34.5 1.19772 34.5 1.75C34.5 2.30228 34.0523 2.75 33.5 2.75C32.9477 2.75 32.5 2.30228 32.5 1.75Z" fill="white"/>
<path d="M35 1.75C35 1.19772 35.4477 0.75 36 0.75C36.5523 0.75 37 1.19772 37 1.75C37 2.30228 36.5523 2.75 36 2.75C35.4477 2.75 35 2.30228 35 1.75Z" fill="white"/>
<path d="M40 4.25C40 3.69772 40.4477 3.25 41 3.25C41.5523 3.25 42 3.69772 42 4.25C42 4.80228 41.5523 5.25 41 5.25C40.4477 5.25 40 4.80228 40 4.25Z" fill="white"/>
<path d="M27.5 54.25C27.5 54.8023 27.9477 55.25 28.5 55.25C29.0523 55.25 29.5 54.8023 29.5 54.25C29.5 53.6977 29.0523 53.25 28.5 53.25C27.9477 53.25 27.5 53.6977 27.5 54.25Z" fill="white"/>
<path d="M37.5 51.75C37.5 52.3023 37.9477 52.75 38.5 52.75C39.0523 52.75 39.5 52.3023 39.5 51.75C39.5 51.1977 39.0523 50.75 38.5 50.75C37.9477 50.75 37.5 51.1977 37.5 51.75Z" fill="white"/>
<path d="M42.5 49.25C42.5 49.8023 42.9477 50.25 43.5 50.25C44.0523 50.25 44.5 49.8023 44.5 49.25C44.5 48.6977 44.0523 48.25 43.5 48.25C42.9477 48.25 42.5 48.6977 42.5 49.25Z" fill="white"/>
<path d="M45 46.75C45 47.3023 45.4477 47.75 46 47.75C46.5523 47.75 47 47.3023 47 46.75C47 46.1977 46.5523 45.75 46 45.75C45.4477 45.75 45 46.1977 45 46.75Z" fill="white"/>
<path d="M47.5 44.25C47.5 44.8023 47.9477 45.25 48.5 45.25C49.0523 45.25 49.5 44.8023 49.5 44.25C49.5 43.6977 49.0523 43.25 48.5 43.25C47.9477 43.25 47.5 43.6977 47.5 44.25Z" fill="white"/>
<path d="M50 41.75C50 42.3023 50.4477 42.75 51 42.75C51.5523 42.75 52 42.3023 52 41.75C52 41.1977 51.5523 40.75 51 40.75C50.4477 40.75 50 41.1977 50 41.75Z" fill="white"/>
<path d="M50 39.25C50 39.8023 50.4477 40.25 51 40.25C51.5523 40.25 52 39.8023 52 39.25C52 38.6977 51.5523 38.25 51 38.25C50.4477 38.25 50 38.6977 50 39.25Z" fill="white"/>
<path d="M52.5 36.75C52.5 37.3023 52.9477 37.75 53.5 37.75C54.0523 37.75 54.5 37.3023 54.5 36.75C54.5 36.1977 54.0523 35.75 53.5 35.75C52.9477 35.75 52.5 36.1977 52.5 36.75Z" fill="white"/>
<path d="M52.5 34.25C52.5 34.8023 52.9477 35.25 53.5 35.25C54.0523 35.25 54.5 34.8023 54.5 34.25C54.5 33.6977 54.0523 33.25 53.5 33.25C52.9477 33.25 52.5 33.6977 52.5 34.25Z" fill="white"/>
<path d="M52.5 31.75C52.5 32.3023 52.9477 32.75 53.5 32.75C54.0523 32.75 54.5 32.3023 54.5 31.75C54.5 31.1977 54.0523 30.75 53.5 30.75C52.9477 30.75 52.5 31.1977 52.5 31.75Z" fill="white"/>
<path d="M52.5 29.25C52.5 29.8023 52.9477 30.25 53.5 30.25C54.0523 30.25 54.5 29.8023 54.5 29.25C54.5 28.6977 54.0523 28.25 53.5 28.25C52.9477 28.25 52.5 28.6977 52.5 29.25Z" fill="white"/>
<path d="M30 54.25C30 54.8023 30.4477 55.25 31 55.25C31.5523 55.25 32 54.8023 32 54.25C32 53.6977 31.5523 53.25 31 53.25C30.4477 53.25 30 53.6977 30 54.25Z" fill="white"/>
<path d="M32.5 54.25C32.5 54.8023 32.9477 55.25 33.5 55.25C34.0523 55.25 34.5 54.8023 34.5 54.25C34.5 53.6977 34.0523 53.25 33.5 53.25C32.9477 53.25 32.5 53.6977 32.5 54.25Z" fill="white"/>
<path d="M35 54.25C35 54.8023 35.4477 55.25 36 55.25C36.5523 55.25 37 54.8023 37 54.25C37 53.6977 36.5523 53.25 36 53.25C35.4477 53.25 35 53.6977 35 54.25Z" fill="white"/>
<path d="M40 51.75C40 52.3023 40.4477 52.75 41 52.75C41.5523 52.75 42 52.3023 42 51.75C42 51.1977 41.5523 50.75 41 50.75C40.4477 50.75 40 51.1977 40 51.75Z" fill="white"/>
<path d="M27 54.25C27 54.8023 26.5523 55.25 26 55.25C25.4477 55.25 25 54.8023 25 54.25C25 53.6977 25.4477 53.25 26 53.25C26.5523 53.25 27 53.6977 27 54.25Z" fill="white"/>
<path d="M17 51.75C17 52.3023 16.5523 52.75 16 52.75C15.4477 52.75 15 52.3023 15 51.75C15 51.1977 15.4477 50.75 16 50.75C16.5523 50.75 17 51.1977 17 51.75Z" fill="white"/>
<path d="M12 49.25C12 49.8023 11.5523 50.25 11 50.25C10.4477 50.25 10 49.8023 10 49.25C10 48.6977 10.4477 48.25 11 48.25C11.5523 48.25 12 48.6977 12 49.25Z" fill="white"/>
<path d="M9.5 46.75C9.5 47.3023 9.05228 47.75 8.5 47.75C7.94772 47.75 7.5 47.3023 7.5 46.75C7.5 46.1977 7.94772 45.75 8.5 45.75C9.05228 45.75 9.5 46.1977 9.5 46.75Z" fill="white"/>
<path d="M7 44.25C7 44.8023 6.55228 45.25 6 45.25C5.44772 45.25 5 44.8023 5 44.25C5 43.6977 5.44772 43.25 6 43.25C6.55228 43.25 7 43.6977 7 44.25Z" fill="white"/>
<path d="M4.5 41.75C4.5 42.3023 4.05228 42.75 3.5 42.75C2.94772 42.75 2.5 42.3023 2.5 41.75C2.5 41.1977 2.94772 40.75 3.5 40.75C4.05228 40.75 4.5 41.1977 4.5 41.75Z" fill="white"/>
<path d="M4.5 39.25C4.5 39.8023 4.05228 40.25 3.5 40.25C2.94772 40.25 2.5 39.8023 2.5 39.25C2.5 38.6977 2.94772 38.25 3.5 38.25C4.05228 38.25 4.5 38.6977 4.5 39.25Z" fill="white"/>
<path d="M2 36.75C2 37.3023 1.55228 37.75 1 37.75C0.447715 37.75 0 37.3023 0 36.75C0 36.1977 0.447715 35.75 1 35.75C1.55228 35.75 2 36.1977 2 36.75Z" fill="white"/>
<path d="M2 34.25C2 34.8023 1.55228 35.25 1 35.25C0.447715 35.25 0 34.8023 0 34.25C0 33.6977 0.447715 33.25 1 33.25C1.55228 33.25 2 33.6977 2 34.25Z" fill="white"/>
<path d="M2 31.75C2 32.3023 1.55228 32.75 1 32.75C0.447715 32.75 0 32.3023 0 31.75C0 31.1977 0.447715 30.75 1 30.75C1.55228 30.75 2 31.1977 2 31.75Z" fill="white"/>
<path d="M2 29.25C2 29.8023 1.55228 30.25 1 30.25C0.447715 30.25 0 29.8023 0 29.25C0 28.6977 0.447715 28.25 1 28.25C1.55228 28.25 2 28.6977 2 29.25Z" fill="white"/>
<path d="M24.5 54.25C24.5 54.8023 24.0523 55.25 23.5 55.25C22.9477 55.25 22.5 54.8023 22.5 54.25C22.5 53.6977 22.9477 53.25 23.5 53.25C24.0523 53.25 24.5 53.6977 24.5 54.25Z" fill="white"/>
<path d="M22 54.25C22 54.8023 21.5523 55.25 21 55.25C20.4477 55.25 20 54.8023 20 54.25C20 53.6977 20.4477 53.25 21 53.25C21.5523 53.25 22 53.6977 22 54.25Z" fill="white"/>
<path d="M19.5 54.25C19.5 54.8023 19.0523 55.25 18.5 55.25C17.9477 55.25 17.5 54.8023 17.5 54.25C17.5 53.6977 17.9477 53.25 18.5 53.25C19.0523 53.25 19.5 53.6977 19.5 54.25Z" fill="white"/>
<path d="M14.5 51.75C14.5 52.3023 14.0523 52.75 13.5 52.75C12.9477 52.75 12.5 52.3023 12.5 51.75C12.5 51.1977 12.9477 50.75 13.5 50.75C14.0523 50.75 14.5 51.1977 14.5 51.75Z" fill="white"/>
<path d="M27 1.75C27 1.19772 26.5523 0.75 26 0.75C25.4477 0.75 25 1.19772 25 1.75C25 2.30228 25.4477 2.75 26 2.75C26.5523 2.75 27 2.30228 27 1.75Z" fill="white"/>
<path d="M17 4.25C17 3.69772 16.5523 3.25 16 3.25C15.4477 3.25 15 3.69772 15 4.25C15 4.80228 15.4477 5.25 16 5.25C16.5523 5.25 17 4.80228 17 4.25Z" fill="white"/>
<path d="M12 6.75C12 6.19772 11.5523 5.75 11 5.75C10.4477 5.75 10 6.19772 10 6.75C10 7.30228 10.4477 7.75 11 7.75C11.5523 7.75 12 7.30228 12 6.75Z" fill="white"/>
<path d="M9.5 9.25C9.5 8.69772 9.05228 8.25 8.5 8.25C7.94772 8.25 7.5 8.69772 7.5 9.25C7.5 9.80228 7.94772 10.25 8.5 10.25C9.05228 10.25 9.5 9.80228 9.5 9.25Z" fill="white"/>
<path d="M7 11.75C7 11.1977 6.55228 10.75 6 10.75C5.44772 10.75 5 11.1977 5 11.75C5 12.3023 5.44772 12.75 6 12.75C6.55228 12.75 7 12.3023 7 11.75Z" fill="white"/>
<path d="M4.5 14.25C4.5 13.6977 4.05228 13.25 3.5 13.25C2.94772 13.25 2.5 13.6977 2.5 14.25C2.5 14.8023 2.94772 15.25 3.5 15.25C4.05228 15.25 4.5 14.8023 4.5 14.25Z" fill="white"/>
<path d="M4.5 16.75C4.5 16.1977 4.05228 15.75 3.5 15.75C2.94772 15.75 2.5 16.1977 2.5 16.75C2.5 17.3023 2.94772 17.75 3.5 17.75C4.05228 17.75 4.5 17.3023 4.5 16.75Z" fill="white"/>
<path d="M2 19.25C2 18.6977 1.55228 18.25 1 18.25C0.447715 18.25 0 18.6977 0 19.25C0 19.8023 0.447715 20.25 1 20.25C1.55228 20.25 2 19.8023 2 19.25Z" fill="white"/>
<path d="M2 21.75C2 21.1977 1.55228 20.75 1 20.75C0.447715 20.75 0 21.1977 0 21.75C0 22.3023 0.447715 22.75 1 22.75C1.55228 22.75 2 22.3023 2 21.75Z" fill="white"/>
<path d="M2 24.25C2 23.6977 1.55228 23.25 1 23.25C0.447715 23.25 0 23.6977 0 24.25C0 24.8023 0.447715 25.25 1 25.25C1.55228 25.25 2 24.8023 2 24.25Z" fill="white"/>
<path d="M2 26.75C2 26.1977 1.55228 25.75 1 25.75C0.447715 25.75 0 26.1977 0 26.75C0 27.3023 0.447715 27.75 1 27.75C1.55228 27.75 2 27.3023 2 26.75Z" fill="white"/>
<path d="M24.5 1.75C24.5 1.19772 24.0523 0.75 23.5 0.75C22.9477 0.75 22.5 1.19772 22.5 1.75C22.5 2.30228 22.9477 2.75 23.5 2.75C24.0523 2.75 24.5 2.30228 24.5 1.75Z" fill="white"/>
<path d="M22 1.75C22 1.19772 21.5523 0.75 21 0.75C20.4477 0.75 20 1.19772 20 1.75C20 2.30228 20.4477 2.75 21 2.75C21.5523 2.75 22 2.30228 22 1.75Z" fill="white"/>
<path d="M19.5 1.75C19.5 1.19772 19.0523 0.75 18.5 0.75C17.9477 0.75 17.5 1.19772 17.5 1.75C17.5 2.30228 17.9477 2.75 18.5 2.75C19.0523 2.75 19.5 2.30228 19.5 1.75Z" fill="white"/>
<path d="M14.5 4.25C14.5 3.69772 14.0523 3.25 13.5 3.25C12.9477 3.25 12.5 3.69772 12.5 4.25C12.5 4.80228 12.9477 5.25 13.5 5.25C14.0523 5.25 14.5 4.80228 14.5 4.25Z" fill="white"/>
<path d="M12.5 25.5C12.5 24.9477 12.9477 24.5 13.5 24.5C14.0523 24.5 14.5 24.9477 14.5 25.5C14.5 26.0523 14.0523 26.5 13.5 26.5C12.9477 26.5 12.5 26.0523 12.5 25.5Z" fill="white"/>
<path d="M12.5 28C12.5 27.4477 12.9477 27 13.5 27C14.0523 27 14.5 27.4477 14.5 28C14.5 28.5523 14.0523 29 13.5 29C12.9477 29 12.5 28.5523 12.5 28Z" fill="white"/>
<path d="M12.5 30.5C12.5 29.9477 12.9477 29.5 13.5 29.5C14.0523 29.5 14.5 29.9477 14.5 30.5C14.5 31.0523 14.0523 31.5 13.5 31.5C12.9477 31.5 12.5 31.0523 12.5 30.5Z" fill="white"/>
<path d="M15 25.5C15 24.9477 15.4477 24.5 16 24.5C16.5523 24.5 17 24.9477 17 25.5C17 26.0523 16.5523 26.5 16 26.5C15.4477 26.5 15 26.0523 15 25.5Z" fill="white"/>
<path d="M15 30.5C15 29.9477 15.4477 29.5 16 29.5C16.5523 29.5 17 29.9477 17 30.5C17 31.0523 16.5523 31.5 16 31.5C15.4477 31.5 15 31.0523 15 30.5Z" fill="white"/>
<path d="M17.5 25.5C17.5 24.9477 17.9477 24.5 18.5 24.5C19.0523 24.5 19.5 24.9477 19.5 25.5C19.5 26.0523 19.0523 26.5 18.5 26.5C17.9477 26.5 17.5 26.0523 17.5 25.5Z" fill="white"/>
<path d="M17.5 30.5C17.5 29.9477 17.9477 29.5 18.5 29.5C19.0523 29.5 19.5 29.9477 19.5 30.5C19.5 31.0523 19.0523 31.5 18.5 31.5C17.9477 31.5 17.5 31.0523 17.5 30.5Z" fill="white"/>
<path d="M25 20.5C25 19.9477 25.4477 19.5 26 19.5C26.5523 19.5 27 19.9477 27 20.5C27 21.0523 26.5523 21.5 26 21.5C25.4477 21.5 25 21.0523 25 20.5Z" fill="white"/>
<path d="M25 25.5C25 24.9477 25.4477 24.5 26 24.5C26.5523 24.5 27 24.9477 27 25.5C27 26.0523 26.5523 26.5 26 26.5C25.4477 26.5 25 26.0523 25 25.5Z" fill="white"/>
<path d="M25 30.5C25 29.9477 25.4477 29.5 26 29.5C26.5523 29.5 27 29.9477 27 30.5C27 31.0523 26.5523 31.5 26 31.5C25.4477 31.5 25 31.0523 25 30.5Z" fill="white"/>
<path d="M25 35.5C25 34.9477 25.4477 34.5 26 34.5C26.5523 34.5 27 34.9477 27 35.5C27 36.0523 26.5523 36.5 26 36.5C25.4477 36.5 25 36.0523 25 35.5Z" fill="white"/>
<path d="M20 25.5C20 24.9477 20.4477 24.5 21 24.5C21.5523 24.5 22 24.9477 22 25.5C22 26.0523 21.5523 26.5 21 26.5C20.4477 26.5 20 26.0523 20 25.5Z" fill="white"/>
<path d="M20 30.5C20 29.9477 20.4477 29.5 21 29.5C21.5523 29.5 22 29.9477 22 30.5C22 31.0523 21.5523 31.5 21 31.5C20.4477 31.5 20 31.0523 20 30.5Z" fill="white"/>
<path d="M27.5 23C27.5 22.4477 27.9477 22 28.5 22C29.0523 22 29.5 22.4477 29.5 23C29.5 23.5523 29.0523 24 28.5 24C27.9477 24 27.5 23.5523 27.5 23Z" fill="white"/>
<path d="M27.5 25.5C27.5 24.9477 27.9477 24.5 28.5 24.5C29.0523 24.5 29.5 24.9477 29.5 25.5C29.5 26.0523 29.0523 26.5 28.5 26.5C27.9477 26.5 27.5 26.0523 27.5 25.5Z" fill="white"/>
<path d="M27.5 30.5C27.5 29.9477 27.9477 29.5 28.5 29.5C29.0523 29.5 29.5 29.9477 29.5 30.5C29.5 31.0523 29.0523 31.5 28.5 31.5C27.9477 31.5 27.5 31.0523 27.5 30.5Z" fill="white"/>
<path d="M27.5 33C27.5 32.4477 27.9477 32 28.5 32C29.0523 32 29.5 32.4477 29.5 33C29.5 33.5523 29.0523 34 28.5 34C27.9477 34 27.5 33.5523 27.5 33Z" fill="white"/>
<path d="M22.5 25.5C22.5 24.9477 22.9477 24.5 23.5 24.5C24.0523 24.5 24.5 24.9477 24.5 25.5C24.5 26.0523 24.0523 26.5 23.5 26.5C22.9477 26.5 22.5 26.0523 22.5 25.5Z" fill="white"/>
<path d="M22.5 30.5C22.5 29.9477 22.9477 29.5 23.5 29.5C24.0523 29.5 24.5 29.9477 24.5 30.5C24.5 31.0523 24.0523 31.5 23.5 31.5C22.9477 31.5 22.5 31.0523 22.5 30.5Z" fill="white"/>
<path d="M30 25.5C30 24.9477 30.4477 24.5 31 24.5C31.5523 24.5 32 24.9477 32 25.5C32 26.0523 31.5523 26.5 31 26.5C30.4477 26.5 30 26.0523 30 25.5Z" fill="white"/>
<path d="M30 30.5C30 29.9477 30.4477 29.5 31 29.5C31.5523 29.5 32 29.9477 32 30.5C32 31.0523 31.5523 31.5 31 31.5C30.4477 31.5 30 31.0523 30 30.5Z" fill="white"/>
<path d="M25 18C25 17.4477 25.4477 17 26 17C26.5523 17 27 17.4477 27 18C27 18.5523 26.5523 19 26 19C25.4477 19 25 18.5523 25 18Z" fill="white"/>
<path d="M25 38C25 37.4477 25.4477 37 26 37C26.5523 37 27 37.4477 27 38C27 38.5523 26.5523 39 26 39C25.4477 39 25 38.5523 25 38Z" fill="white"/>
<path d="M27.5 18C27.5 17.4477 27.9477 17 28.5 17C29.0523 17 29.5 17.4477 29.5 18C29.5 18.5523 29.0523 19 28.5 19C27.9477 19 27.5 18.5523 27.5 18Z" fill="white"/>
<path d="M32.5 20.5C32.5 19.9477 32.9477 19.5 33.5 19.5C34.0523 19.5 34.5 19.9477 34.5 20.5C34.5 21.0523 34.0523 21.5 33.5 21.5C32.9477 21.5 32.5 21.0523 32.5 20.5Z" fill="white"/>
<path d="M35 23C35 22.4477 35.4477 22 36 22C36.5523 22 37 22.4477 37 23C37 23.5523 36.5523 24 36 24C35.4477 24 35 23.5523 35 23Z" fill="white"/>
<path d="M37.5 25.5C37.5 24.9477 37.9477 24.5 38.5 24.5C39.0523 24.5 39.5 24.9477 39.5 25.5C39.5 26.0523 39.0523 26.5 38.5 26.5C37.9477 26.5 37.5 26.0523 37.5 25.5Z" fill="white"/>
<path d="M27.5 38C27.5 38.5523 27.9477 39 28.5 39C29.0523 39 29.5 38.5523 29.5 38C29.5 37.4477 29.0523 37 28.5 37C27.9477 37 27.5 37.4477 27.5 38Z" fill="white"/>
<path d="M32.5 35.5C32.5 36.0523 32.9477 36.5 33.5 36.5C34.0523 36.5 34.5 36.0523 34.5 35.5C34.5 34.9477 34.0523 34.5 33.5 34.5C32.9477 34.5 32.5 34.9477 32.5 35.5Z" fill="white"/>
<path d="M35 33C35 33.5523 35.4477 34 36 34C36.5523 34 37 33.5523 37 33C37 32.4477 36.5523 32 36 32C35.4477 32 35 32.4477 35 33Z" fill="white"/>
<path d="M37.5 30.5C37.5 31.0523 37.9477 31.5 38.5 31.5C39.0523 31.5 39.5 31.0523 39.5 30.5C39.5 29.9477 39.0523 29.5 38.5 29.5C37.9477 29.5 37.5 29.9477 37.5 30.5Z" fill="white"/>
<path d="M40 28C40 27.4477 40.4477 27 41 27C41.5523 27 42 27.4477 42 28C42 28.5523 41.5523 29 41 29C40.4477 29 40 28.5523 40 28Z" fill="white"/>
<path d="M30 18C30 17.4477 30.4477 17 31 17C31.5523 17 32 17.4477 32 18C32 18.5523 31.5523 19 31 19C30.4477 19 30 18.5523 30 18Z" fill="white"/>
<path d="M30 38C30 38.5523 30.4477 39 31 39C31.5523 39 32 38.5523 32 38C32 37.4477 31.5523 37 31 37C30.4477 37 30 37.4477 30 38Z" fill="white"/>
</svg>
